<svg id="Layer_1" data-name="Layer 1" xmlns="http://www.w3.org/2000/svg" viewBox="0 0 1324.97 947.11"><path d="M696.41,272.4l-26.14,58.48c-.8-1.1-2.37-3.25-3.93-5.42-26.11-36.52-68.25-50.41-107.74-35.52C522.46,303.58,498,342,501.53,379.8c4,43,32.6,75.12,73.35,82.29C625.24,471,672.22,438,683.35,385.56c2.93-13.82,3.79-28.11,7.24-41.77,15.22-60.17,52-99.42,113.42-113.19,66.64-14.93,138.25,23.53,162.14,86.42.83,2.16,1.48,4.38,2.66,8h-9.59c-15.1,0-30.2.15-45.3-.16-2.63-.05-6.14-1.32-7.69-3.26-24.56-30.74-56.14-43.91-94.5-34.52s-60.15,36.18-68.58,74.07c-3.42,15.39-4.78,31.28-8.64,46.54C710.67,501.74,598,553.68,511,495.93,473.37,471,451.55,434.8,446.93,389.8c-9.52-92.87,63.7-168,156.81-161.35,35.47,2.54,65.74,17.43,91,42.43a22.12,22.12,0,0,1,1.89,2.1C696.93,273.33,697.05,273.81,696.41,272.4Z"/><path d="M755.55,420.87A97.23,97.23,0,0,0,793,454.12c41,20.66,90.76,7.67,115.69-30.09,1.22-1.85,3.86-3.89,5.87-3.92,17.86-.31,35.74-.18,55.66-.18-4.07,9.74-7.08,18.82-11.5,27.16-25.89,48.87-85.49,79.15-140.56,72.47-33.48-4.06-62.59-16.71-86.25-41-1.57-1.62-3.15-5.27-2.39-6.82C737.85,454.74,746.69,438,755.55,420.87Z"/><path d="M430.66,546.54c21.31,0,36.38,18,36.23,43.31-.14,24.31-15.56,41.73-36.91,41.7-20.63,0-36.46-18.72-36.25-42.8C393.94,565,410.09,546.54,430.66,546.54Zm.46,14.25c-14.1-.2-24.27,11.16-24.62,27.51-.37,16.91,9.64,29.24,23.85,29.4,13.6.16,24.15-12,24.32-28.12C454.85,572.9,445.1,561,431.12,560.79Z"/><path d="M767.44,599.81c0,7.23-.09,14.64,0,22,.06,4.85-.2,9.49-5.49,9.71s-5.92-4.14-5.91-9.17c0-9.61-.06-19.23-.32-28.83-.18-6.47,2-9.31,7.64-9,9.63.45,19.28.32,28.92.59,6.43.19,10.44-3.21,10.61-10.88S799.2,562.94,792.73,563c-10.15.08-20.3,0-30.45,0-3.88,0-7.42-.55-7.58-6.28-.16-5.93,3.27-7.63,7.54-7.65,9.65-.05,19.29-.07,28.93,0,13.56.16,21.76,7.84,23.13,21.51,1.53,15.29-3.85,23.78-18.72,28.23,5.25,7.48,10.42,14.37,15.07,21.73,1.53,2.43,1.71,6.06,2.51,9.14-3.69-.23-8.69,1.25-10.84-1a136.66,136.66,0,0,1-16.57-22.24C781.15,599,775.62,597.53,767.44,599.81Z"/><path d="M493.93,617.52c8.81-.5,16.93-.11,24.8-1.61,11.53-2.21,18.91-14.91,18-29C535.91,573,527.45,563.5,515.1,563c-7.87-.34-15.74-.13-23.62-.19-4.48,0-10,1.33-9.84-7.11s5.83-6.71,10.16-6.81c7.87-.19,15.74-.16,23.61-.05,17.68.23,32.19,16.39,33.29,37,1.2,22.35-11.59,41.82-29.69,43.89-10.07,1.15-20.28.73-30.43.79-4.67,0-6.81-3.18-6.77-8.66.09-10.52.21-21,.1-31.57-.06-5.16,1.75-8.17,6.09-8.24s6.13,3,6,8.17C493.82,598.77,493.94,607.4,493.93,617.52Z"/><path d="M894.28,626.58c-1,1.27-2.45,4.38-3.48,4.2-3.1-.54-8.34-1.83-8.67-3.78-2.5-15-11.54-14.17-20.88-13.33a29.61,29.61,0,0,1-6.85,0c-8.54-1.25-15,.61-18,12.06-.68,2.67-5.79,3.75-8.86,5.57-.56-3.6-2.47-7.9-1.45-10.68,7.68-20.92,15.69-41.69,24.25-62.12,1.74-4.16,5.84-8.45,9.53-9.59,5.74-1.78,7.09,5.27,8.92,10q11.52,29.9,22.85,59.89C892.5,621,893.17,623.28,894.28,626.58ZM847,599.17l24.61,0c-4.2-11-8-21-12.38-32.58Z"/><path d="M720.14,549.12c5.07,0,10.29-.82,15.16.34,2.6.62,4.61,4.65,6.89,7.14-2.27,2.2-4.43,6.1-6.81,6.3-9.09.76-18.25.24-27.38.37-13.13.18-21.89,10.48-22.22,26-.33,15.78,8.28,27.43,21.39,28.07,9.11.45,18.26.07,27.39-.19,4-.11,8,.91,7.23,6.2-.4,2.88-4.37,7.07-6.86,7.2-11.37.6-22.87,1-34.15-.45-16.51-2.11-27.63-20.59-26.88-42.47.71-20.63,13.81-37.38,30.27-38.43C709.48,548.82,714.82,549.11,720.14,549.12Z"/><path d="M361.22,549c5.07,0,10.27-.78,15.17.31,2.75.61,5,4.3,7.5,6.61-2.38,2.41-4.64,6.68-7.16,6.91-8.82.81-17.74.14-26.62.21-12.85.1-21.81,10.1-22.37,24.75-.62,16.14,7.31,27.73,20.56,28.72,9.09.68,18.25,0,27.37-.17,4.06-.09,8.06.08,8.48,6.21.44,6.5-3.58,8.26-7.94,8.25-10.9,0-21.87.34-32.69-.87-15.75-1.75-28-20.79-27.54-41.36.44-21.19,12.83-38,29.26-39.4,5.3-.44,10.65-.07,16-.07Z"/><path d="M592.79,631.07c-6.34,0-12.69.14-19-.05-7.68-.23-10.7-3.71-10.82-12.48-.13-9,.08-18-.07-27-.12-6.87,2.66-9.9,8.29-9.88,11.92.06,23.87-.31,35.76.41,2.54.15,6.46,3.74,7,6.51,1,5-2.42,7.12-6.68,7.08-8.62-.07-17.26.44-25.88,0-7.91-.37-6.52,5.9-6.69,11.48-.18,5.83-.2,10.63,6.86,10.23,10.39-.59,20.81-.1,31.21-.31,4.14-.08,8.16.11,8.21,6.33s-3.8,7.78-8.38,7.72C606,631,599.39,631.08,592.79,631.07Z"/><path d="M995.59,563.43c-6.79,0-12.33,0-17.86,0-4.25,0-7.44-2.4-6.27-7.48.61-2.66,4.15-6.12,6.44-6.2,16-.55,31.92-.3,47.87-.34,4.3,0,8.35,1.55,7.35,7.28-.48,2.72-4.45,6-7.15,6.47-5.66,1-11.54.28-18.69.28,0,6.07,0,11.32,0,16.56,0,14.4.31,28.82-.28,43.18-.13,3-3.61,5.8-5.54,8.69-2-2.9-5.49-5.73-5.59-8.72-.55-16.47-.27-33-.27-49.48C995.58,570.71,995.59,567.78,995.59,563.43Z"/><path d="M918.36,596.26c0,9.44-.11,17.73,0,26,.07,5.11-1,9.28-6,9.32-4.69,0-6.49-3.58-6.46-8.92.06-10.19,0-20.37-.07-30.56,0-6.69,2.82-9.78,8.46-9.66q16.7.36,33.38.47c4.09,0,8,.32,7.92,6.65-.11,6.06-3.91,6.79-8.07,6.75C938.24,596.23,928.93,596.28,918.36,596.26Z"/><path d="M591.88,563.12c-7.1,0-14.24.54-21.27-.29-2.5-.29-4.71-3.88-7.05-6,2.28-2.58,4.49-7.3,6.85-7.41,14.68-.65,29.41-.55,44.1.09,2.06.09,4,4.55,6,7-2.17,2.22-4.22,6.09-6.55,6.35-7.29.84-14.68.31-22,.31Z"/><path d="M1072.14,631.63c-6.35,0-12.7.14-19,0-7.68-.24-10.69-3.72-10.82-12.48-.13-9,.08-18-.07-27-.11-6.87,2.67-9.9,8.29-9.88,11.93.06,23.87-.31,35.77.41,2.54.15,6.46,3.74,7,6.51,1,5-2.41,7.12-6.67,7.08-8.63-.07-17.27.44-25.88,0-7.92-.38-6.53,5.9-6.7,11.48-.18,5.83-.19,10.63,6.87,10.23,10.38-.59,20.8-.1,31.21-.31,4.13-.08,8.15.11,8.2,6.33s-3.79,7.78-8.38,7.72C1085.33,631.59,1078.73,631.64,1072.14,631.63Z"/><path d="M1071.23,563.12c-7.1,0-14.24.54-21.28-.29-2.49-.29-4.71-3.88-7-6,2.28-2.58,4.5-7.3,6.86-7.41,14.68-.65,29.41-.55,44.09.09,2.06.09,4,4.55,6,7-2.18,2.22-4.22,6.09-6.56,6.35-7.28.84-14.68.31-22,.31Z"/><path d="M933.92,563.11c-7.08,0-14.19.53-21.19-.31-2.4-.29-4.5-4-6.73-6.18,2-2.51,4-7.12,6.13-7.2,15.14-.57,30.3-.47,45.44.15,1.77.07,4.9,4.79,4.69,7-.22,2.39-3.49,6-5.63,6.25C949.1,563.59,941.49,563.12,933.92,563.11Z"/></svg>